<svg preserveAspectRatio="none" overflow="visible" style="display: block;" width="12.8994" height="10.9999" viewBox="0 0 12.8994 10.9999" fill="none" xmlns="http://www.w3.org/2000/svg">
<g id="Group 1000002202">
<path id="Union" d="M11.6934 3.0332C12.3591 3.0332 12.8993 3.57254 12.8994 4.23828V8.52832C12.8994 9.19416 12.3592 9.73438 11.6934 9.73438H11.4287V10.5088C11.4287 10.6948 11.3236 10.865 11.1572 10.9482C10.9908 11.0314 10.7914 11.013 10.6426 10.9014L9.30371 9.89746H5.58594C4.92029 9.89723 4.38086 9.35711 4.38086 8.69141V4.23828C4.38097 3.57268 4.92036 3.03343 5.58594 3.0332H11.6934ZM5.58594 4.01562C5.4629 4.01585 5.3634 4.11521 5.36328 4.23828V8.69141C5.36328 8.81457 5.46283 8.91481 5.58594 8.91504H9.63086L10.4463 9.52637V8.75195H11.6934C11.8167 8.75195 11.917 8.65162 11.917 8.52832V4.23828C11.9169 4.11507 11.8166 4.01562 11.6934 4.01562H5.58594ZM7.3125 0C7.97834 0 8.51855 0.540211 8.51855 1.20605V2.17578C8.51855 2.44703 8.29858 2.66696 8.02734 2.66699C7.75607 2.66699 7.53613 2.44705 7.53613 2.17578V1.20605C7.53613 1.08275 7.4358 0.982422 7.3125 0.982422H1.20605C1.08275 0.982422 0.982422 1.08275 0.982422 1.20605V5.47461C0.982422 5.59791 1.08275 5.69824 1.20605 5.69824H1.89062C2.20115 5.69848 2.45312 5.95016 2.45312 6.26074V6.49316L3.1377 5.98047C3.3547 5.81772 3.66243 5.86114 3.8252 6.07812C3.98796 6.29514 3.94357 6.60286 3.72656 6.76562L2.25586 7.86914C2.10711 7.98042 1.90839 7.99809 1.74219 7.91504C1.57578 7.83184 1.4707 7.66163 1.4707 7.47559V6.68066H1.20605C0.540211 6.68066 0 6.14045 0 5.47461V1.20605C0 0.540211 0.540211 0 1.20605 0H7.3125ZM9.65137 6.52539C9.92249 6.52557 10.1426 6.74544 10.1426 7.0166C10.1424 7.28761 9.92238 7.50764 9.65137 7.50781H6.70996C6.43887 7.50773 6.21892 7.28767 6.21875 7.0166C6.21875 6.74539 6.43877 6.52548 6.70996 6.52539H9.65137ZM10.5703 4.87109C10.8415 4.87122 11.0615 5.09111 11.0615 5.3623C11.0614 5.63338 10.8414 5.85339 10.5703 5.85352H6.70996C6.43885 5.85343 6.21889 5.6334 6.21875 5.3623C6.21875 5.09109 6.43877 4.87118 6.70996 4.87109H10.5703Z" fill="#13161B"/>
</g>
</svg>
