<svg preserveAspectRatio="none" overflow="visible" style="display: block;" width="24.1639" height="23.1364" viewBox="0 0 24.1639 23.1364" fill="none" xmlns="http://www.w3.org/2000/svg">
<g id="Group 11097">
<path id="Vector" d="M22.2002 6.01143L10.7989 0.947864C9.71443 0.466239 8.46708 1.00794 8.01285 2.15778L3.23729 14.2467C2.78306 15.3965 3.29395 16.7191 4.37839 17.2007L15.7797 22.2643C16.8642 22.7459 18.1115 22.2042 18.5657 21.0544L23.3413 8.96547C23.7955 7.81562 23.2846 6.49306 22.2002 6.01143Z" fill="url(#paint0_linear_0_13)" fill-opacity="0.2"/>
<path id="Vector_2" d="M19.6926 3.83824L7.7235 0.563917C6.58505 0.252476 5.42404 0.978559 5.13031 2.18567L2.04222 14.8766C1.74849 16.0837 2.43328 17.3147 3.57173 17.6262L15.5408 20.9005C16.6793 21.212 17.8403 20.4859 18.134 19.2788L21.2221 6.58782C21.5158 5.38071 20.8311 4.14968 19.6926 3.83824Z" fill="url(#paint1_linear_0_13)" fill-opacity="0.4"/>
<path id="Vector_3" d="M15.1459 1.92756H2.12886C0.953125 1.92756 5.72205e-06 2.93816 5.72205e-06 4.1848V17.9868C5.72205e-06 19.2335 0.953125 20.2441 2.12886 20.2441H15.1459C16.3216 20.2441 17.2747 19.2335 17.2747 17.9868V4.1848C17.2747 2.93816 16.3216 1.92756 15.1459 1.92756Z" fill="url(#paint2_linear_0_13)"/>
<path id="Vector_4" d="M13.3162 9.17889L10.318 8.73907L8.9778 5.99647C8.94119 5.92136 8.88094 5.86059 8.80654 5.82362C8.62 5.73068 8.39327 5.80816 8.29998 5.99647L6.9597 8.73907L3.96157 9.17889C3.87892 9.1908 3.80334 9.23013 3.74548 9.28978C3.67553 9.36235 3.63698 9.45998 3.63831 9.56121C3.63964 9.66245 3.68074 9.759 3.75256 9.82971L5.92178 11.9644L5.40926 14.9788C5.39729 15.049 5.40495 15.1211 5.43146 15.187C5.45801 15.2529 5.50229 15.3101 5.55935 15.3519C5.61635 15.3937 5.68388 15.4185 5.75419 15.4236C5.82455 15.4287 5.89485 15.4137 5.95718 15.3805L8.63889 13.9573L11.3206 15.3805C11.3938 15.4198 11.4788 15.433 11.5603 15.4186C11.7657 15.3829 11.9039 15.1862 11.8685 14.9788L11.356 11.9644L13.5252 9.82971C13.5842 9.77131 13.6232 9.69501 13.635 9.61155C13.6669 9.40298 13.5228 9.20987 13.3162 9.17889Z" fill="url(#paint3_linear_0_13)"/>
</g>
<defs>
<linearGradient id="paint0_linear_0_13" x1="22.2778" y1="8.05687" x2="4.04876" y2="16.3862" gradientUnits="userSpaceOnUse">
<stop offset="0.0480121" stop-color="#ECB441"/>
<stop offset="1" stop-color="#FFF1D6"/>
</linearGradient>
<linearGradient id="paint1_linear_0_13" x1="20.0465" y1="5.85064" x2="3.03657" y2="16.716" gradientUnits="userSpaceOnUse">
<stop offset="0.0480121" stop-color="#ECB441"/>
<stop offset="1" stop-color="#FFF1D6"/>
</linearGradient>
<linearGradient id="paint2_linear_0_13" x1="15.9109" y1="3.85561" x2="-8.09121" y2="25.5871" gradientUnits="userSpaceOnUse">
<stop offset="0.0480121" stop-color="#ECB441"/>
<stop offset="1" stop-color="#FFF1D6"/>
</linearGradient>
<linearGradient id="paint3_linear_0_13" x1="3.63828" y1="19.0396" x2="22.0362" y2="-3.01598" gradientUnits="userSpaceOnUse">
<stop stop-color="#956A11"/>
<stop offset="1" stop-color="#CC9014" stop-opacity="0.08"/>
</linearGradient>
</defs>
</svg>
